<svg version="1.1" id="Layer_1" xmlns="http://www.w3.org/2000/svg" xmlns:xlink="http://www.w3.org/1999/xlink" x="0px" y="0px"
	 width="100%" viewBox="0 0 200 200" enable-background="new 0 0 200 200" xml:space="preserve">
<path fill="#0D4F6C" opacity="1.000000" stroke="none" 
	d="
M95.000000,201.000000 
	C63.333336,201.000000 32.166672,201.000000 1.000004,201.000000 
	C1.000003,134.333344 1.000003,67.666679 1.000001,1.000013 
	C67.666656,1.000009 134.333313,1.000009 200.999969,1.000004 
	C200.999985,67.666649 200.999985,134.333298 201.000000,200.999969 
	C165.833328,201.000000 130.666672,201.000000 95.000000,201.000000 
M72.633675,93.056740 
	C72.857239,92.785820 73.080803,92.514908 73.210342,92.232468 
	C73.210342,92.232468 73.205208,92.327065 73.768272,92.180222 
	C74.177795,91.789925 74.587311,91.399635 75.004143,91.005173 
	C75.004143,91.005173 75.011765,91.000183 75.562874,90.918579 
	C75.813866,90.660408 76.064865,90.402237 76.720184,90.077988 
	C76.720184,90.077988 77.010178,89.788605 77.487907,89.747208 
	C77.801613,89.608742 78.008629,89.375557 78.043198,89.026573 
	C78.043198,89.026573 78.028854,89.094131 78.622063,89.043617 
	C79.089775,88.705910 79.557487,88.368202 80.000000,88.000000 
	C80.000000,88.000000 80.024857,88.030052 80.688362,87.963821 
	C81.020042,87.684464 81.351730,87.405113 81.864853,87.238762 
	C81.864853,87.238762 81.983223,87.060760 82.741180,87.020744 
	C85.095016,86.137154 87.448853,85.253563 89.874641,84.445099 
	C89.874641,84.445099 89.955475,84.379616 90.903923,84.305412 
	C100.898262,82.016609 110.497536,83.686699 119.891640,87.128906 
	C119.891640,87.128906 119.821381,87.153351 120.244865,87.662025 
	C121.448273,88.200249 122.651688,88.738464 123.845299,89.165428 
	C123.845299,89.165428 123.734550,89.179832 123.997726,89.646111 
	C124.328552,89.753052 124.659378,89.859985 124.997871,90.022507 
	C124.997871,90.022507 125.048012,89.997314 125.353340,90.487350 
	C125.866158,90.729530 126.378967,90.971703 126.886154,91.130165 
	C126.886154,91.130165 126.802757,91.139343 127.029976,91.618172 
	C127.346657,91.752632 127.663345,91.887093 128.000000,92.000000 
	C128.000000,92.000000 127.980858,92.021729 128.314835,92.596626 
	C130.783295,94.833900 133.251755,97.071175 135.868774,99.140205 
	C135.868774,99.140205 135.690994,99.277206 135.917145,99.902321 
	C137.220612,101.336250 138.524094,102.770180 139.867523,104.908630 
	C141.707962,110.278816 143.548401,115.648994 145.580643,121.752831 
	C146.395203,123.975090 147.209747,126.197357 148.803177,128.629379 
	C149.868851,128.557922 150.934509,128.486465 152.775467,128.607895 
	C152.613922,124.505814 152.452362,120.403740 152.319534,115.697121 
	C152.154831,115.117027 151.990128,114.536934 151.830109,113.219154 
	C150.030182,109.351326 148.230255,105.483490 146.118378,101.935356 
	C146.118378,101.935356 146.448792,101.634613 146.275864,100.993004 
	C145.235382,99.600410 144.194916,98.207817 143.141251,96.886017 
	C143.141251,96.886017 143.213135,96.890305 143.043564,96.293098 
	C142.704010,96.129288 142.364441,95.965477 141.493576,95.422173 
	C136.979828,91.597717 132.466064,87.773254 127.815269,83.000809 
	C129.303757,82.428444 130.784256,81.386177 132.282059,81.360680 
	C141.358932,81.206154 150.439758,81.283699 160.332672,81.283699 
	C158.376938,78.485176 163.309906,74.014542 156.231323,73.356407 
	C155.508774,73.417198 154.786240,73.477989 153.260727,73.286682 
	C152.152924,73.370369 151.045105,73.454056 149.225861,73.370514 
	C148.501755,73.425636 147.777634,73.480751 146.253983,73.283844 
	C145.149826,73.366608 144.045654,73.449371 142.025848,73.364288 
	C109.706848,73.417976 77.387856,73.471664 44.349682,73.288933 
	C39.258778,74.503044 42.810081,78.214203 41.612396,81.298119 
	C50.940197,81.298119 59.692181,81.205650 68.438850,81.379883 
	C70.093315,81.412834 71.726677,82.505310 72.660400,83.483086 
	C62.623840,90.605209 54.142582,98.951927 50.220203,111.904739 
	C49.382069,116.429008 48.513851,120.947990 47.717228,125.479561 
	C47.250046,128.137100 48.230831,129.307846 51.724758,128.612335 
	C52.472157,128.544418 53.219559,128.476501 54.678310,128.427780 
	C55.773849,123.285011 56.869385,118.142242 58.335567,112.569550 
	C58.503292,112.038467 58.671017,111.507385 59.117680,110.566444 
	C59.117680,110.566444 59.132336,110.070892 59.055622,110.071198 
	C59.055622,110.071198 59.107162,110.128029 59.577549,109.747322 
	C59.747883,109.176697 59.918217,108.606079 60.019665,108.030090 
	C60.019665,108.030090 60.063610,108.083405 60.564121,107.731987 
	C60.765778,107.162956 60.967434,106.593925 61.074837,106.054115 
	C61.074837,106.054115 61.105831,106.147797 61.632931,105.836479 
	C61.865803,105.277908 62.098675,104.719330 62.203178,104.165085 
	C62.203178,104.165085 62.212872,104.293167 62.693203,104.041702 
	C62.812557,103.709953 62.931911,103.378197 63.000153,103.000305 
	C63.000153,103.000305 63.050774,103.045471 63.586212,102.704277 
	C64.423538,101.489204 65.260864,100.274139 66.564026,98.881126 
	C66.859116,98.675621 67.015808,98.393311 67.610992,97.764122 
	C68.762131,96.526802 69.913269,95.289490 71.005005,94.007355 
	C71.005005,94.007355 71.043365,94.071136 71.563774,93.941917 
	C71.774239,93.665413 71.984703,93.388916 72.111771,93.104202 
	C72.111771,93.104202 72.106667,93.187843 72.633675,93.056740 
M130.036331,124.646858 
	C130.246506,131.202423 134.710770,128.082443 138.327896,128.533524 
	C137.534363,114.044334 131.616028,103.059418 119.391273,96.162766 
	C105.877670,88.539024 92.219437,89.187294 79.403976,97.955208 
	C68.895760,105.144577 63.697269,115.396667 63.439194,128.456390 
	C66.243286,128.456390 68.493019,128.456390 70.765503,128.456390 
	C71.398140,125.473190 71.790169,122.664871 72.597336,119.981438 
	C76.477608,107.081390 88.564026,98.544037 102.035835,99.056496 
	C115.840195,99.581604 126.440254,108.987755 130.036331,124.646858 
M91.250893,118.720490 
	C99.726990,112.228493 110.531555,114.249786 113.379280,123.576462 
	C115.004181,128.898239 117.526588,129.405914 121.840591,128.295761 
	C122.914902,117.586311 113.516411,107.483093 102.122635,106.964615 
	C89.489906,106.389763 79.226250,115.934952 79.436409,128.385590 
	C81.828415,128.385590 84.232765,128.385590 85.879166,128.385590 
	C87.662659,125.036942 89.198799,122.152725 91.250893,118.720490 
z"/>
<path fill="#ECE3CB" opacity="1.000000" stroke="none" 
	d="
M145.388824,121.019173 
	C143.548401,115.648994 141.707962,110.278816 139.809357,104.197647 
	C138.397797,102.083504 137.044388,100.680359 135.690994,99.277206 
	C135.690994,99.277206 135.868774,99.140205 135.791519,98.863869 
	C136.085876,92.925026 132.468735,91.960587 127.980858,92.021729 
	C127.980858,92.021729 128.000000,92.000000 127.826859,91.822662 
	C127.407806,91.413177 127.124161,91.244522 126.802757,91.139343 
	C126.802757,91.139343 126.886154,91.130165 126.718292,90.942795 
	C126.049622,90.502724 125.548820,90.250015 125.048012,89.997314 
	C125.048012,89.997314 124.997871,90.022507 124.815491,89.818817 
	C124.333588,89.470032 124.034065,89.324936 123.734550,89.179832 
	C123.734550,89.179832 123.845299,89.165428 123.690369,88.908142 
	C122.297409,88.151695 121.059395,87.652527 119.821381,87.153351 
	C119.821381,87.153351 119.891640,87.128906 119.756828,86.825546 
	C116.578278,85.251350 113.633911,83.322624 110.470398,82.844765 
	C103.597351,81.806564 96.512260,80.277420 89.955475,84.379616 
	C89.955475,84.379616 89.874641,84.445099 89.395905,84.326607 
	C86.605858,85.158997 84.294540,86.109879 81.983223,87.060760 
	C81.983223,87.060760 81.864853,87.238762 81.470856,87.284271 
	C80.726189,87.563202 80.375519,87.796623 80.024857,88.030052 
	C80.024857,88.030052 80.000000,88.000000 79.725708,88.062935 
	C78.977226,88.448624 78.503044,88.771378 78.028854,89.094131 
	C78.028854,89.094131 78.043198,89.026573 77.864525,89.114853 
	C77.415993,89.346779 77.190765,89.541939 77.010178,89.788605 
	C77.010178,89.788605 76.720184,90.077988 76.273270,90.207153 
	C75.554825,90.557610 75.283295,90.778893 75.011765,91.000183 
	C75.011765,91.000183 75.004143,91.005173 74.719788,91.080902 
	C74.025352,91.546776 73.615280,91.936920 73.205208,92.327065 
	C73.205208,92.327065 73.210342,92.232468 73.018311,92.340195 
	C72.586403,92.694557 72.346535,92.941200 72.106667,93.187843 
	C72.106667,93.187843 72.111771,93.104202 71.923309,93.218292 
	C71.504349,93.578629 71.273857,93.824883 71.043365,94.071136 
	C71.043365,94.071136 71.005005,94.007355 70.669495,94.043381 
	C69.234016,95.397667 68.134064,96.715927 67.034103,98.034195 
	C67.015808,98.393311 66.859116,98.675621 65.990326,99.042358 
	C64.628006,100.484215 63.839386,101.764847 63.050774,103.045471 
	C63.050774,103.045471 63.000153,103.000305 62.836891,103.194595 
	C62.520042,103.690323 62.366459,103.991745 62.212875,104.293167 
	C62.212872,104.293167 62.203178,104.165085 62.014908,104.336189 
	C61.586372,105.054131 61.346100,105.600960 61.105827,106.147797 
	C61.105831,106.147797 61.074837,106.054115 60.898521,106.244659 
	C60.502670,106.984612 60.283138,107.534004 60.063606,108.083405 
	C60.063610,108.083405 60.019665,108.030090 59.842155,108.244156 
	C59.478817,109.014816 59.292988,109.571426 59.107162,110.128029 
	C59.107162,110.128029 59.055622,110.071198 58.969696,110.139259 
	C58.682674,110.451210 58.667667,110.707535 58.838745,110.976303 
	C58.671017,111.507385 58.503292,112.038467 57.831829,112.942856 
	C56.207710,118.346970 55.087334,123.377785 53.966957,128.408600 
	C53.219559,128.476501 52.472157,128.544418 51.199867,128.211319 
	C50.240967,125.687210 49.397041,123.550621 49.466412,121.444092 
	C49.578022,118.054710 50.292625,114.685181 50.752468,111.307266 
	C54.142582,98.951927 62.623840,90.605209 73.318436,83.280350 
	C75.384239,79.331398 72.139572,80.251297 70.705513,80.206291 
	C64.217674,80.002655 57.720222,80.120171 51.226406,80.088127 
	C45.023712,80.057510 44.855915,79.860016 45.068855,73.525352 
	C77.387856,73.471664 109.706848,73.417976 142.634766,73.682205 
	C144.513641,73.845367 145.783585,73.690620 147.053528,73.535866 
	C147.777634,73.480751 148.501755,73.425636 149.679550,73.706848 
	C151.744125,76.218468 153.002777,75.648956 154.063690,73.538773 
	C154.786240,73.477989 155.508774,73.417198 156.643005,73.781746 
	C158.541779,80.079071 158.422119,80.181107 152.693726,80.122025 
	C145.888672,80.051834 139.081512,80.036751 132.277145,80.132401 
	C130.084122,80.163231 127.897102,80.620010 124.444695,81.032967 
	C126.330635,82.600716 127.141479,83.274750 127.952316,83.948792 
	C132.466064,87.773254 136.979828,91.597717 141.919662,95.831207 
	C142.634872,96.456932 142.924011,96.673622 143.213135,96.890305 
	C143.213135,96.890305 143.141251,96.886017 143.144409,97.215851 
	C144.247971,98.908653 145.348373,100.271637 146.448792,101.634613 
	C146.448792,101.634613 146.118378,101.935356 146.251465,102.158363 
	C148.198181,106.239861 150.011810,110.098351 151.825439,113.956841 
	C151.990128,114.536934 152.154831,115.117027 152.239075,116.499344 
	C152.105804,121.006050 152.052994,124.710533 152.000183,128.415009 
	C150.934509,128.486465 149.868851,128.557922 148.410019,128.164856 
	C147.140854,125.473289 146.264847,123.246231 145.388824,121.019173 
z"/>
<path fill="#E1DFCC" opacity="1.000000" stroke="none" 
	d="
M129.994858,124.238251 
	C126.440254,108.987755 115.840195,99.581604 102.035835,99.056496 
	C88.564026,98.544037 76.477608,107.081390 72.597336,119.981438 
	C71.790169,122.664871 71.398140,125.473190 70.765503,128.456390 
	C68.493019,128.456390 66.243286,128.456390 63.439194,128.456390 
	C63.697269,115.396667 68.895760,105.144577 79.403976,97.955208 
	C92.219437,89.187294 105.877670,88.539024 119.391273,96.162766 
	C131.616028,103.059418 137.534363,114.044334 138.327896,128.533524 
	C134.710770,128.082443 130.246506,131.202423 129.994858,124.238251 
z"/>
<path fill="#E1DFCC" opacity="1.000000" stroke="none" 
	d="
M90.992920,118.994499 
	C89.198799,122.152725 87.662659,125.036942 85.879166,128.385590 
	C84.232765,128.385590 81.828415,128.385590 79.436409,128.385590 
	C79.226250,115.934952 89.489906,106.389763 102.122635,106.964615 
	C113.516411,107.483093 122.914902,117.586311 121.840591,128.295761 
	C117.526588,129.405914 115.004181,128.898239 113.379280,123.576462 
	C110.531555,114.249786 99.726990,112.228493 90.992920,118.994499 
z"/>
<path fill="#C9D0C3" opacity="1.000000" stroke="none" 
	d="
M44.709267,73.407143 
	C44.855915,79.860016 45.023712,80.057510 51.226406,80.088127 
	C57.720222,80.120171 64.217674,80.002655 70.705513,80.206291 
	C72.139572,80.251297 75.384239,79.331398 73.673126,83.093262 
	C71.726677,82.505310 70.093315,81.412834 68.438850,81.379883 
	C59.692181,81.205650 50.940197,81.298119 41.612396,81.298119 
	C42.810081,78.214203 39.258778,74.503044 44.709267,73.407143 
z"/>
<path fill="#C9D0C3" opacity="1.000000" stroke="none" 
	d="
M127.883797,83.474800 
	C127.141479,83.274750 126.330635,82.600716 124.444695,81.032967 
	C127.897102,80.620010 130.084122,80.163231 132.277145,80.132401 
	C139.081512,80.036751 145.888672,80.051834 152.693726,80.122025 
	C158.422119,80.181107 158.541779,80.079071 156.999054,73.861763 
	C163.309906,74.014542 158.376938,78.485176 160.332672,81.283699 
	C150.439758,81.283699 141.358932,81.206154 132.282059,81.360680 
	C130.784256,81.386177 129.303757,82.428444 127.883797,83.474800 
z"/>
<path fill="#D8DECF" opacity="1.000000" stroke="none" 
	d="
M90.429703,84.342514 
	C96.512260,80.277420 103.597351,81.806564 110.470398,82.844765 
	C113.633911,83.322624 116.578278,85.251350 119.767441,86.861198 
	C110.497536,83.686699 100.898262,82.016609 90.429703,84.342514 
z"/>
<path fill="#D2DCD2" opacity="1.000000" stroke="none" 
	d="
M50.486336,111.606003 
	C50.292625,114.685181 49.578022,118.054710 49.466412,121.444092 
	C49.397041,123.550621 50.240967,125.687210 50.836914,128.101532 
	C48.230831,129.307846 47.250046,128.137100 47.717228,125.479561 
	C48.513851,120.947990 49.382069,116.429008 50.486336,111.606003 
z"/>
<path fill="#D2DCD2" opacity="1.000000" stroke="none" 
	d="
M54.322632,128.418182 
	C55.087334,123.377785 56.207710,118.346970 57.646507,113.157814 
	C56.869385,118.142242 55.773849,123.285011 54.322632,128.418182 
z"/>
<path fill="#D8DECF" opacity="1.000000" stroke="none" 
	d="
M128.147842,92.309174 
	C132.468735,91.960587 136.085876,92.925026 135.717239,98.947990 
	C133.251755,97.071175 130.783295,94.833900 128.147842,92.309174 
z"/>
<path fill="#D2DACD" opacity="1.000000" stroke="none" 
	d="
M151.827774,113.587997 
	C150.011810,110.098351 148.198181,106.239861 146.407440,101.998512 
	C148.230255,105.483490 150.030182,109.351326 151.827774,113.587997 
z"/>
<path fill="#D2DACD" opacity="1.000000" stroke="none" 
	d="
M152.387817,128.511444 
	C152.052994,124.710533 152.105804,121.006050 152.224701,116.801620 
	C152.452362,120.403740 152.613922,124.505814 152.387817,128.511444 
z"/>
<path fill="#D2DACD" opacity="1.000000" stroke="none" 
	d="
M145.484741,121.386002 
	C146.264847,123.246231 147.140854,125.473289 148.020584,128.059982 
	C147.209747,126.197357 146.395203,123.975090 145.484741,121.386002 
z"/>
<path fill="#D8DECF" opacity="1.000000" stroke="none" 
	d="
M82.362198,87.040756 
	C84.294540,86.109879 86.605858,85.158997 89.359932,84.289047 
	C87.448853,85.253563 85.095016,86.137154 82.362198,87.040756 
z"/>
<path fill="#D8DECF" opacity="1.000000" stroke="none" 
	d="
M135.804077,99.589767 
	C137.044388,100.680359 138.397797,102.083504 139.789368,103.845383 
	C138.524094,102.770180 137.220612,101.336250 135.804077,99.589767 
z"/>
<path fill="#C9D0C3" opacity="1.000000" stroke="none" 
	d="
M153.662201,73.412727 
	C153.002777,75.648956 151.744125,76.218468 150.035278,73.790466 
	C151.045105,73.454056 152.152924,73.370369 153.662201,73.412727 
z"/>
<path fill="#D2DACD" opacity="1.000000" stroke="none" 
	d="
M146.362335,101.313812 
	C145.348373,100.271637 144.247971,98.908653 143.151001,97.180450 
	C144.194916,98.207817 145.235382,99.600410 146.362335,101.313812 
z"/>
<path fill="#D2DCD2" opacity="1.000000" stroke="none" 
	d="
M67.322548,97.899155 
	C68.134064,96.715927 69.234016,95.397667 70.699188,94.065788 
	C69.913269,95.289490 68.762131,96.526802 67.322548,97.899155 
z"/>
<path fill="#D2DCD2" opacity="1.000000" stroke="none" 
	d="
M63.318493,102.874878 
	C63.839386,101.764847 64.628006,100.484215 65.757401,99.131332 
	C65.260864,100.274139 64.423538,101.489204 63.318493,102.874878 
z"/>
<path fill="#C9D0C3" opacity="1.000000" stroke="none" 
	d="
M146.653748,73.409851 
	C145.783585,73.690620 144.513641,73.845367 143.092590,73.766129 
	C144.045654,73.449371 145.149826,73.366608 146.653748,73.409851 
z"/>
<path fill="#D8DECF" opacity="1.000000" stroke="none" 
	d="
M120.033127,87.407684 
	C121.059395,87.652527 122.297409,88.151695 123.695267,88.963776 
	C122.651688,88.738464 121.448273,88.200249 120.033127,87.407684 
z"/>
<path fill="#D8DECF" opacity="1.000000" stroke="none" 
	d="
M125.200676,90.242332 
	C125.548820,90.250015 126.049622,90.502724 126.721100,90.984650 
	C126.378967,90.971703 125.866158,90.729530 125.200676,90.242332 
z"/>
<path fill="#D8DECF" opacity="1.000000" stroke="none" 
	d="
M73.486740,92.253647 
	C73.615280,91.936920 74.025352,91.546776 74.716125,91.082993 
	C74.587311,91.399635 74.177795,91.789925 73.486740,92.253647 
z"/>
<path fill="#D8DECF" opacity="1.000000" stroke="none" 
	d="
M78.325455,89.068878 
	C78.503044,88.771378 78.977226,88.448624 79.738312,88.078186 
	C79.557487,88.368202 79.089775,88.705910 78.325455,89.068878 
z"/>
<path fill="#D2DCD2" opacity="1.000000" stroke="none" 
	d="
M61.369377,105.992142 
	C61.346100,105.600960 61.586372,105.054131 62.079094,104.334030 
	C62.098675,104.719330 61.865803,105.277908 61.369377,105.992142 
z"/>
<path fill="#D2DCD2" opacity="1.000000" stroke="none" 
	d="
M60.313866,107.907700 
	C60.283138,107.534004 60.502670,106.984612 60.945648,106.230057 
	C60.967434,106.593925 60.765778,107.162956 60.313866,107.907700 
z"/>
<path fill="#D2DCD2" opacity="1.000000" stroke="none" 
	d="
M59.342354,109.937675 
	C59.292988,109.571426 59.478817,109.014816 59.876598,108.246834 
	C59.918217,108.606079 59.747883,109.176697 59.342354,109.937675 
z"/>
<path fill="#D8DECF" opacity="1.000000" stroke="none" 
	d="
M123.866135,89.412971 
	C124.034065,89.324936 124.333588,89.470032 124.811653,89.791031 
	C124.659378,89.859985 124.328552,89.753052 123.866135,89.412971 
z"/>
<path fill="#D2DCD2" opacity="1.000000" stroke="none" 
	d="
M71.303574,94.006531 
	C71.273857,93.824883 71.504349,93.578629 71.965004,93.222397 
	C71.984703,93.388916 71.774239,93.665413 71.303574,94.006531 
z"/>
<path fill="#D8DECF" opacity="1.000000" stroke="none" 
	d="
M75.287323,90.959381 
	C75.283295,90.778893 75.554825,90.557610 76.071106,90.240196 
	C76.064865,90.402237 75.813866,90.660408 75.287323,90.959381 
z"/>
<path fill="#D2DCD2" opacity="1.000000" stroke="none" 
	d="
M58.978210,110.771378 
	C58.667667,110.707535 58.682674,110.451210 59.008049,110.139107 
	C59.132336,110.070892 59.117680,110.566444 58.978210,110.771378 
z"/>
<path fill="#D8DECF" opacity="1.000000" stroke="none" 
	d="
M80.356613,87.996933 
	C80.375519,87.796623 80.726189,87.563202 81.380127,87.227768 
	C81.351730,87.405113 81.020042,87.684464 80.356613,87.996933 
z"/>
<path fill="#D2DCD2" opacity="1.000000" stroke="none" 
	d="
M62.453041,104.167435 
	C62.366459,103.991745 62.520042,103.690323 62.862450,103.217667 
	C62.931911,103.378197 62.812557,103.709953 62.453041,104.167435 
z"/>
<path fill="#D8DECF" opacity="1.000000" stroke="none" 
	d="
M126.916367,91.378754 
	C127.124161,91.244522 127.407806,91.413177 127.816864,91.833435 
	C127.663345,91.887093 127.346657,91.752632 126.916367,91.378754 
z"/>
<path fill="#D2DCD2" opacity="1.000000" stroke="none" 
	d="
M72.370171,93.122292 
	C72.346535,92.941200 72.586403,92.694557 73.065323,92.345963 
	C73.080803,92.514908 72.857239,92.785820 72.370171,93.122292 
z"/>
<path fill="#D8DECF" opacity="1.000000" stroke="none" 
	d="
M77.249039,89.767906 
	C77.190765,89.541939 77.415993,89.346779 77.897400,89.125397 
	C78.008629,89.375557 77.801613,89.608742 77.249039,89.767906 
z"/>
<path fill="#D2DACD" opacity="1.000000" stroke="none" 
	d="
M143.128357,96.591705 
	C142.924011,96.673622 142.634872,96.456932 142.185318,96.020950 
	C142.364441,95.965477 142.704010,96.129288 143.128357,96.591705 
z"/>
</svg>